<svg width="300" height="150" viewBox="0 0 300 150" fill="none" xmlns="http://www.w3.org/2000/svg">
  <rect width="300" height="150" fill="#75CFF0"/>
  <path d="M0 45.6341C0 45.6341 28.3333 35.6341 50 35.6341C71.6667 35.6341 85 45.6341 106.667 45.6341C128.333 45.6341 135 30.6341 163.333 35.6341C191.667 40.6341 193.333 55.6341 216.667 55.6341C240 55.6341 241.667 45.6341 266.667 45.6341C291.667 45.6341 300 50.6341 300 50.6341V150H0V45.6341Z" fill="#9ED36A"/>
  <circle cx="260" cy="25" r="15" fill="#FFEC33"/>
  <path d="M10 85H100V95H10V85Z" fill="#CCCCCC"/>
  <path d="M50 55H70V75H50V55Z" fill="#EEEEEE"/>
  <path d="M150 75H170V95H150V75Z" fill="#EEEEEE"/>
  <path d="M200 65H260V85H200V65Z" fill="#EEEEEE"/>
  <path d="M120 100H290V110H120V100Z" fill="#CCCCCC"/>
  <path d="M10 120H230V130H10V120Z" fill="#CCCCCC"/>
</svg> 