<svg width="300" height="150" viewBox="0 0 300 150" fill="none" xmlns="http://www.w3.org/2000/svg">
  <rect width="300" height="150" fill="#F6EFE4"/>
  <path d="M0 40C0 40 30 38 50 40C70 42 80 50 100 50C120 50 130 40 150 40C170 40 180 50 200 55C220 60 230 50 250 50C270 50 300 60 300 60V150H0V40Z" fill="#E0D3B9"/>
  <path d="M50 70C50 70 70 68 85 70C100 72 110 80 120 80C130 80 140 70 155 70C170 70 180 80 190 85C200 90 210 80 220 80C230 80 250 90 250 90V150H50V70Z" fill="#C1A76B"/>
  <path d="M100 100C100 100 120 98 135 100C150 102 160 110 170 110C180 110 190 100 205 100C220 100 230 110 240 115C250 120 260 110 270 110C280 110 300 120 300 120V150H100V100Z" fill="#A38244"/>
  <path d="M200 120C200 120 220 118 235 120C250 122 260 130 270 130C280 130 290 120 300 120V150H200V120Z" fill="#927130"/>
  
  <path d="M0 10H40V12H0V10Z" fill="#D0D5DD"/>
  <path d="M60 15H120V17H60V15Z" fill="#D0D5DD"/>
  <path d="M140 10H190V12H140V10Z" fill="#D0D5DD"/>
  <path d="M210 15H300V17H210V15Z" fill="#D0D5DD"/>
  
  <path d="M10 20H70V22H10V20Z" fill="#D0D5DD"/>
  <path d="M90 25H140V27H90V25Z" fill="#D0D5DD"/>
  <path d="M160 20H220V22H160V20Z" fill="#D0D5DD"/>
  <path d="M240 25H300V27H240V25Z" fill="#D0D5DD"/>
  
  <path d="M40 30H90V32H40V30Z" fill="#D0D5DD"/>
  <path d="M110 35H160V37H110V35Z" fill="#D0D5DD"/>
  <path d="M180 30H260V32H180V30Z" fill="#D0D5DD"/>
  <path d="M270 35H300V37H270V35Z" fill="#D0D5DD"/>
  
  <path d="M50 80L90 60L130 90L170 50L220 70L260 50L300 70" stroke="#A38244" stroke-width="1"/>
  <path d="M100 110L140 90L180 110L220 80L260 100L300 90" stroke="#927130" stroke-width="1"/>
</svg> 